<svg width="821" height="821" viewBox="0 0 821 821" fill="none" xmlns="http://www.w3.org/2000/svg">
<path d="M509.09 409.724C486.255 422.549 458.391 437.294 442.99 445.19L401.86 464.027H422.219C451.671 451.957 458.49 448.757 466.934 444.725C487.004 435.142 516.251 420.862 544.187 406.51C572.123 392.157 598.748 377.733 622.375 364.181C646.004 350.629 666.635 337.949 683.865 326.723C701.097 315.497 714.928 305.726 729.393 293.86C743.858 281.994 758.957 268.035 770.713 255.704C782.469 243.373 790.883 232.671 796.877 223.132C802.871 213.592 806.443 205.216 808.345 196.608C810.247 188 810.477 179.159 809.498 171.306C808.518 163.454 806.328 156.591 802.813 150.658C799.298 144.725 794.457 139.723 788.348 135.71C782.239 131.696 774.863 128.672 765.641 126.229C756.422 123.786 745.356 121.925 731.986 121.052C718.616 120.18 702.941 120.296 685.883 121.11C668.824 121.925 650.383 123.437 621.425 127.945C592.467 132.452 552.993 139.956 486.461 156.562L138.36 258.474C324.829 210.995 366.514 200.56 403.617 192.266C474.095 176.512 528.036 168.485 569.356 164.647C610.676 160.808 639.376 161.157 660.641 164.996C681.906 168.834 695.738 176.163 703.633 182.503C711.527 188.843 713.487 194.194 713.747 202.512C714.006 210.829 712.565 222.114 706.168 236.19C699.772 250.266 688.419 267.133 675.596 282.489C662.774 297.844 648.481 311.687 630.227 326.868C611.973 342.049 589.757 358.568 569.746 372.281C549.734 385.993 531.926 396.899 509.09 409.724Z" fill="#2185D0"/>
<path d="M401.86 460.863L255.839 527.123C345.702 491.568 394.201 472.239 422.219 460.863H401.86Z" fill="#E77817"/>
<path d="M354.897 545.903C388.294 537.547 407.311 532.129 447.824 519.509L616.06 460.863H605.547C566.116 472.818 550.926 477.307 533.951 482.107C504.301 490.492 469.205 499.828 440.765 507.09C412.325 514.351 390.541 519.538 368.93 524.292C347.319 529.046 325.881 533.369 304.875 536.74C283.869 540.111 263.296 542.532 240.474 544.001C217.653 545.471 192.584 545.989 175.381 545.384C158.18 544.779 148.844 543.05 141.28 540.976C133.715 538.901 127.924 536.481 123.17 533.758C118.416 531.035 114.698 528.009 111.759 523.514C108.82 519.019 106.659 513.054 105.816 506.874C104.973 500.693 105.449 494.296 106.255 489.642C107.062 484.989 108.201 482.078 110.844 475.898C112.493 472.043 114.727 466.916 117.965 460.863H43.0861C38.8707 465.659 35.0065 470.391 31.6256 474.932C22.8082 486.775 17.276 497.321 13.9044 508.3C10.5333 519.278 9.32289 530.689 10.36 539.938C11.3981 549.188 14.6823 556.276 19.3502 562.673C24.0182 569.07 30.07 574.775 38.8004 579.27C47.5314 583.765 58.942 587.05 72.0817 588.779C85.2208 590.508 100.089 590.681 116.6 590.076C133.111 589.471 151.264 588.088 169.763 585.754C188.262 583.42 207.107 580.135 240.417 572.845C273.726 565.555 321.501 554.259 354.897 545.903Z" fill="#E77817"/>
<path d="M616.059 460.863L687.924 435.812C651.916 446.775 625.597 454.784 605.546 460.863H616.059Z" fill="#2185D0"/>
<path d="M43.0859 460.863H117.965C119.919 457.211 122.238 453.221 125.014 448.971C132.39 437.675 142.994 424.536 154.635 412.088C166.276 399.64 178.955 387.883 200.854 370.825C222.754 353.767 253.873 331.407 288.22 309.853C322.567 288.3 360.141 267.553 399.774 247.132L536.27 178.814C443.568 218.907 361.669 256.777 334.525 270.089C307.381 283.401 285.598 294.581 257.763 309.997C229.928 325.413 196.042 345.065 169.85 361.287C143.657 377.51 125.158 390.304 108.906 402.319C92.6547 414.335 78.6508 425.573 65.5976 437.761C57.5502 445.276 49.8637 453.152 43.0859 460.863Z" fill="#2185D0"/>
<path d="M404.12 699.613C418.443 699.613 430.055 598.412 430.055 473.574C430.055 469.309 430.04 465.071 430.013 460.863H378.228C378.201 465.071 378.188 469.309 378.188 473.574C378.188 598.412 389.798 699.613 404.12 699.613Z" fill="#E77817"/>
<path d="M378.229 460.863H430.014C429.258 341.938 417.955 247.535 404.121 247.535C390.289 247.535 378.985 341.938 378.229 460.863Z" fill="#2185D0"/>
</svg>
